<?xml version="1.0" encoding="UTF-8"?>
<svg width="146px" height="120px" viewBox="0 0 146 120" version="1.1" xmlns="http://www.w3.org/2000/svg" xmlns:xlink="http://www.w3.org/1999/xlink">
    <!-- Generator: Sketch 41.2 (35397) - http://www.bohemiancoding.com/sketch -->
    <title>web-design</title>
    <desc>Created with Sketch.</desc>
    <defs></defs>
    <g id="Page-1" stroke="none" stroke-width="1" fill="none" fill-rule="evenodd">
        <g id="Desktop-HD" transform="translate(-997.000000, -433.000000)" fill="#FFFFFF">
            <g id="Bar-3" transform="translate(920.000000, 433.000000)">
                <g id="web-design" transform="translate(77.000000, 0.000000)">
                    <g id="Group">
                        <path d="M135.831148,0.0929508197 L9.36786885,0.0929508197 C4.20147541,0.0929508197 0,4.29442623 0,9.46081967 L0,93.7701639 C0,98.9365574 4.20147541,103.138033 9.36786885,103.138033 L51.5222951,103.138033 L51.5222951,114.847869 L35.1290164,114.847869 L35.1290164,119.531803 L51.5222951,119.531803 L93.6767213,119.531803 L110.07,119.531803 L110.07,114.847869 L93.6767213,114.847869 L93.6767213,103.138033 L135.831148,103.138033 C140.997541,103.138033 145.199016,98.9365574 145.199016,93.7701639 L145.199016,9.46081967 C145.199016,4.29442623 140.997541,0.0929508197 135.831148,0.0929508197 Z M88.9927869,114.847377 L56.2057377,114.847377 L56.2057377,103.137541 L88.9927869,103.137541 L88.9927869,114.847377 Z M140.515082,93.7701639 C140.515082,96.3531148 138.41459,98.4540984 135.831148,98.4540984 L93.6767213,98.4540984 L51.5222951,98.4540984 L9.36786885,98.4540984 C6.78491803,98.4540984 4.68393443,96.3536066 4.68393443,93.7701639 L4.68393443,9.46081967 C4.68393443,6.87786885 6.78442623,4.77688525 9.36786885,4.77688525 L135.831148,4.77688525 C138.414098,4.77688525 140.515082,6.87737705 140.515082,9.46081967 L140.515082,93.7701639 Z" id="Shape"></path>
                        <path d="M9.36786885,93.7701639 L135.831148,93.7701639 L135.831148,9.46081967 L9.36786885,9.46081967 L9.36786885,93.7701639 Z M14.0513115,14.1452459 L131.147213,14.1452459 L131.147213,89.0867213 L14.0513115,89.0867213 L14.0513115,14.1452459 Z" id="Shape"></path>
                        <circle id="Oval" cx="21.0772131" cy="21.1711475" r="2.34196721"></circle>
                        <circle id="Oval" cx="28.1031148" cy="21.1711475" r="2.34196721"></circle>
                        <ellipse id="Oval" cx="35.1290164" cy="21.1711475" rx="2.34196721" ry="2.34196721"></ellipse>
                        <path d="M18.7352459,56.2996721 L51.5222951,56.2996721 L51.5222951,28.1965574 L18.7352459,28.1965574 L18.7352459,56.2996721 Z M23.4191803,32.88 L46.8383607,32.88 L46.8383607,51.6152459 L23.4191803,51.6152459 L23.4191803,32.88 Z" id="Shape"></path>
                        <path d="M56.2062295,56.2996721 L88.9932787,56.2996721 L88.9932787,28.1965574 L56.2062295,28.1965574 L56.2062295,56.2996721 Z M60.8901639,32.88 L84.3093443,32.88 L84.3093443,51.6152459 L60.8901639,51.6152459 L60.8901639,32.88 Z" id="Shape"></path>
                        <path d="M93.6767213,56.2996721 L126.46377,56.2996721 L126.46377,28.1965574 L93.6767213,28.1965574 L93.6767213,56.2996721 L93.6767213,56.2996721 Z M98.3606557,32.88 L121.779836,32.88 L121.779836,51.6152459 L98.3606557,51.6152459 L98.3606557,32.88 Z" id="Shape"></path>
                        <rect id="Rectangle-path" x="18.7352459" y="60.9831148" width="70.257541" height="4.68393443"></rect>
                        <rect id="Rectangle-path" x="18.7352459" y="70.3509836" width="70.257541" height="4.68393443"></rect>
                        <rect id="Rectangle-path" x="18.7352459" y="79.7183607" width="70.257541" height="4.68393443"></rect>
                        <rect id="Rectangle-path" x="96.0186885" y="60.9831148" width="30.445082" height="4.68393443"></rect>
                        <rect id="Rectangle-path" x="96.0186885" y="70.3509836" width="30.445082" height="4.68393443"></rect>
                        <rect id="Rectangle-path" x="96.0186885" y="79.7183607" width="30.445082" height="4.68393443"></rect>
                    </g>
                </g>
            </g>
        </g>
    </g>
</svg>