<?xml version="1.0" encoding="UTF-8"?>
<svg width="120px" height="121px" viewBox="0 0 120 121" version="1.1" xmlns="http://www.w3.org/2000/svg" xmlns:xlink="http://www.w3.org/1999/xlink">
    <!-- Generator: Sketch 41.2 (35397) - http://www.bohemiancoding.com/sketch -->
    <title>Shape</title>
    <desc>Created with Sketch.</desc>
    <defs></defs>
    <g id="Page-1" stroke="none" stroke-width="1" fill="none" fill-rule="evenodd">
        <g id="Desktop-HD" transform="translate(-318.000000, -433.000000)" fill="#FFFFFF">
            <g id="Bar-1" transform="translate(227.000000, 433.000000)">
                <path d="M180.032442,46.4826343 L180.032442,42.2555362 C182.279713,41.4544198 183.903488,39.3250191 183.903488,36.8050183 C183.903488,34.4419079 182.480907,32.411275 180.45068,31.5077327 L184.089236,16.95107 L170.355232,0.927116428 L156.620821,16.9490377 L160.259377,31.5057005 C158.229151,32.4116814 156.80657,34.4419079 156.80657,36.8050183 C156.80657,39.3250191 158.430344,41.4540134 160.677616,42.2555362 L160.677616,46.4826343 L141.32279,46.4826343 L141.32279,16.9356248 L131.645174,0 L121.967558,16.9356248 L121.967558,46.4826343 L91,46.4826343 L91,73.5795528 L121.967558,73.5795528 L121.967558,110.353681 C121.967558,115.689986 126.308869,120.031297 131.645174,120.031297 C136.981479,120.031297 141.32279,115.689986 141.32279,110.353681 L141.32279,73.5795528 L160.677616,73.5795528 L160.677616,110.353681 C160.677616,115.689986 165.018927,120.031297 170.355232,120.031297 C175.691537,120.031297 180.032848,115.689986 180.032848,110.353681 L180.032848,104.547111 L181.968371,104.547111 C185.169585,104.547111 187.774941,101.941755 187.774941,98.7405415 L187.774941,87.412325 L186.81287,86.8530474 C186.203192,86.4990279 185.839418,85.8775632 185.839418,85.1922855 C185.839418,84.5070079 186.203192,83.8859496 186.81287,83.5315237 L187.774941,82.9722461 L187.774941,77.4501927 L183.903894,77.4501927 L183.903894,80.8855229 C182.688604,81.97522 181.968371,83.5429044 181.968371,85.1918791 C181.968371,86.8408538 182.688197,88.4085382 183.903894,89.4982353 L183.903894,98.7401351 C183.903894,99.8066645 183.036933,100.675658 181.968371,100.675658 L180.032848,100.675658 L180.032848,73.5787399 L211,73.5787399 L211,46.4826343 L180.032442,46.4826343 L180.032442,46.4826343 Z M121.968371,69.7085064 L94.8710464,69.7085064 L94.8710464,50.3536808 L98.7420928,50.3536808 L98.7420928,56.1602504 L102.613139,56.1602504 L102.613139,50.3536808 L106.484186,50.3536808 L106.484186,58.0957736 L110.355232,58.0957736 L110.355232,50.3536808 L114.226278,50.3536808 L114.226278,56.1602504 L118.097325,56.1602504 L118.097325,50.3536808 L121.968371,50.3536808 L121.968371,69.7085064 Z M131.645174,7.80387349 L136.052331,15.5146695 L127.238018,15.5146695 L131.645174,7.80387349 Z M125.838605,19.3857159 L129.709651,19.3857159 L129.709651,94.8699016 L125.838605,94.8699016 L125.838605,19.3857159 Z M137.451338,110.353274 C137.451744,113.554895 134.846388,116.159844 131.645174,116.159844 C128.44396,116.159844 125.838605,113.554488 125.838605,110.353274 L125.838605,106.482228 L137.451338,106.482228 L137.451338,110.353274 Z M137.451338,102.611588 L125.838605,102.611588 L125.838605,98.7405415 L137.451338,98.7405415 L137.451338,102.611588 Z M137.451744,94.8699016 L133.580291,94.8699016 L133.580291,19.3857159 L137.451338,19.3857159 L137.451338,94.8699016 L137.451744,94.8699016 Z M170.354826,17.4501927 C171.423387,17.4501927 172.290349,18.3191866 172.290349,19.3857159 C172.290349,20.4522453 171.423387,21.3212391 170.354826,21.3212391 C169.286264,21.3212391 168.419302,20.4522453 168.419302,19.3857159 C168.419302,18.3191866 169.286264,17.4501927 170.354826,17.4501927 Z M168.419302,9.13337714 L168.419302,13.935198 C166.172031,14.7363144 164.548256,16.8657151 164.548256,19.3857159 C164.548256,22.5869299 167.153612,25.1922855 170.354826,25.1922855 C173.55604,25.1922855 176.161395,22.5869299 176.161395,19.3857159 C176.161395,16.8657151 174.53762,14.7367209 172.290349,13.935198 L172.290349,9.13337714 L179.846287,17.9493155 L176.584918,30.9984487 L164.124327,30.9984487 L160.860926,17.9513477 L168.419302,9.13337714 Z M160.678022,69.7085064 L141.32279,69.7085064 L141.32279,50.3536808 L145.193837,50.3536808 L145.193837,56.1602504 L149.064883,56.1602504 L149.064883,50.3536808 L152.93593,50.3536808 L152.93593,58.0957736 L156.806976,58.0957736 L156.806976,50.3536808 L160.678022,50.3536808 L160.678022,69.7085064 Z M170.354826,116.16025 C167.153612,116.16025 164.548256,113.554895 164.548256,110.353681 L164.548256,104.547111 L176.160989,104.547111 L176.160989,110.353681 L176.161395,110.353681 C176.161395,113.554895 173.555633,116.16025 170.354826,116.16025 Z M176.160989,48.4181576 L176.160989,56.1602504 L176.160989,92.9343784 L164.54785,92.9343784 L164.54785,42.6115879 L176.160582,42.6115879 L176.160582,48.4181576 L176.160989,48.4181576 Z M176.160989,96.8050183 L176.160989,100.676065 L164.54785,100.676065 L164.54785,96.8050183 L176.160989,96.8050183 Z M178.096918,38.7405415 L162.613139,38.7405415 C161.544578,38.7405415 160.677616,37.8715477 160.677616,36.8050183 C160.677616,35.7384889 161.544578,34.8694951 162.613139,34.8694951 L178.096918,34.8694951 C179.16548,34.8694951 180.032442,35.7384889 180.032442,36.8050183 C180.032442,37.8715477 179.165074,38.7405415 178.096918,38.7405415 Z M207.128954,69.7085064 L207.128954,69.7085064 L180.031629,69.7085064 L180.031629,56.1602504 L180.031629,50.3536808 L183.902675,50.3536808 L183.902675,58.0957736 L187.773722,58.0957736 L187.773722,50.3536808 L191.644768,50.3536808 L191.644768,56.1602504 L195.515814,56.1602504 L195.515814,50.3536808 L199.386861,50.3536808 L199.386861,58.0957736 L203.257907,58.0957736 L203.257907,50.3536808 L207.128954,50.3536808 L207.128954,69.7085064 Z" id="Shape"></path>
            </g>
        </g>
    </g>
</svg>