<?xml version="1.0" encoding="UTF-8"?>
<svg width="120px" height="120px" viewBox="0 0 120 120" version="1.1" xmlns="http://www.w3.org/2000/svg" xmlns:xlink="http://www.w3.org/1999/xlink">
    <!-- Generator: Sketch 41.2 (35397) - http://www.bohemiancoding.com/sketch -->
    <title>wrench</title>
    <desc>Created with Sketch.</desc>
    <defs></defs>
    <g id="Page-1" stroke="none" stroke-width="1" fill="none" fill-rule="evenodd">
        <g id="Desktop-HD" transform="translate(-664.000000, -433.000000)" fill="#FFFFFF">
            <g id="Bar-2" transform="translate(560.000000, 433.000000)">
                <g id="wrench" transform="translate(104.000000, 0.000000)">
                    <g id="Group">
                        <path d="M28.2287838,18.1041892 C29.0294595,16.9110811 29.1798649,15.4033784 28.6297297,14.0772973 C28.0795946,12.7491892 26.9095946,11.7895946 25.4963514,11.5135135 C25.3285135,11.4806757 25.1991892,11.3513514 25.1663514,11.1794595 C24.8882432,9.77027027 23.9290541,8.60027027 22.6025676,8.05013514 C21.2724324,7.5 19.7687838,7.64878378 18.5756757,8.45148649 C18.432973,8.55 18.2472973,8.55 18.1045946,8.45148649 C16.9135135,7.65040541 15.4078378,7.50364865 14.0777027,8.05013514 C12.7495946,8.60027027 11.79,9.77027027 11.5139189,11.1835135 C11.4810811,11.3513514 11.3517568,11.4806757 11.1798649,11.5135135 C9.77067568,11.7895946 8.60067568,12.7491892 8.05054054,14.0772973 C7.50040541,15.4054054 7.65081081,16.9110811 8.45189189,18.1041892 C8.54837838,18.2468919 8.54837838,18.4325676 8.45189189,18.5752703 C7.65081081,19.7683784 7.5,21.2740541 8.05054054,22.6021622 C8.60067568,23.9302703 9.77067568,24.8898649 11.1839189,25.1659459 C11.3517568,25.1987838 11.4810811,25.3281081 11.5139189,25.5 C11.792027,26.9091892 12.7512162,28.0791892 14.0777027,28.6293243 C15.4078378,29.1774324 16.9098649,29.0306757 18.1045946,28.227973 C18.2472973,28.1314865 18.432973,28.1294595 18.5756757,28.227973 C19.2936486,28.7104054 20.1259459,28.9577027 20.9618919,28.9577027 C21.5160811,28.9577027 22.0718919,28.8478378 22.602973,28.6293243 C23.9310811,28.0791892 24.8906757,26.9091892 25.1667568,25.4959459 C25.1995946,25.3281081 25.3289189,25.1987838 25.5008108,25.1659459 C26.91,24.8878378 28.08,23.9286486 28.6301351,22.6021622 C29.1802703,21.2756757 29.0298649,19.7683784 28.2287838,18.5752703 C28.1322973,18.4325676 28.1322973,18.2468919 28.2287838,18.1041892 Z M25.0236486,20.727973 C25.1278378,20.8824324 25.1027027,21.0291892 25.0641892,21.1236486 C25.0236486,21.2201351 24.9405405,21.3397297 24.7593243,21.3766216 C23.0391892,21.7106757 21.7131081,23.0367568 21.3790541,24.7532432 C21.3425676,24.9385135 21.2225676,25.0236486 21.1260811,25.0621622 C21.0316216,25.1027027 20.8848649,25.1278378 20.7304054,25.0216216 C20.0047297,24.5331081 19.1724324,24.2898649 18.3425676,24.2898649 C17.5122973,24.2898649 16.6804054,24.5331081 15.9547297,25.0216216 C15.7982432,25.1298649 15.6555405,25.1006757 15.5590541,25.0621622 C15.4625676,25.0236486 15.342973,24.9385135 15.3060811,24.7572973 C14.972027,23.0371622 13.6459459,21.7110811 11.9294595,21.377027 C11.7441892,21.3405405 11.6590541,21.2205405 11.6205405,21.1240541 C11.58,21.0295946 11.5568919,20.8828378 11.6610811,20.7283784 C12.6360811,19.2766216 12.6360811,17.402027 11.6610811,15.9502703 C11.5568919,15.7958108 11.582027,15.6490541 11.6205405,15.5545946 C11.6610811,15.4581081 11.7441892,15.3385135 11.9254054,15.3016216 C13.6455405,14.9675676 14.9716216,13.6414865 15.3056757,11.925 C15.3421622,11.7397297 15.4621622,11.6545946 15.5586486,11.6160811 C15.6531081,11.5775676 15.7978378,11.5524324 15.9543243,11.6566216 C17.4060811,12.6336486 19.2806757,12.6336486 20.7324324,11.6566216 C20.8889189,11.5524324 21.0356757,11.5795946 21.1281081,11.6160811 C21.2245946,11.6566216 21.3441892,11.7397297 21.3810811,11.9209459 C21.7151351,13.6410811 23.0412162,14.9671622 24.7577027,15.3012162 C24.942973,15.3377027 25.0281081,15.4577027 25.0666216,15.5541892 C25.1071622,15.6486486 25.1302703,15.7954054 25.0260811,15.9498649 C24.0486486,17.4036486 24.0486486,19.2762162 25.0236486,20.727973 Z" id="Shape"></path>
                        <path d="M111.24,101.586892 C111.143108,101.444189 111.143108,101.258514 111.239595,101.115811 C112.040676,99.9227027 112.191486,98.417027 111.640946,97.0889189 C111.090811,95.7608108 109.920811,94.8012162 108.507568,94.5251351 C108.33973,94.4922973 108.210405,94.362973 108.177568,94.1910811 C107.899459,92.7818919 106.94027,91.6118919 105.613784,91.0617568 C104.285676,90.5116216 102.78,90.6604054 101.586892,91.4631081 C101.445811,91.5595946 101.260541,91.5636486 101.115811,91.4631081 C99.9227027,90.662027 98.4206757,90.5132432 97.0889189,91.0617568 C95.7608108,91.6118919 94.8012162,92.7818919 94.5251351,94.1951351 C94.4922973,94.362973 94.362973,94.4922973 94.1910811,94.5251351 C92.7818919,94.8032432 91.6118919,95.7624324 91.0617568,97.0889189 C90.5116216,98.415 90.662027,99.9227027 91.4631081,101.115811 C91.5595946,101.258514 91.5595946,101.444189 91.4631081,101.586892 C90.662027,102.78 90.5112162,104.285676 91.0617568,105.613784 C91.6118919,106.941892 92.7818919,107.901486 94.1951351,108.177568 C94.362973,108.210405 94.4922973,108.33973 94.5251351,108.511622 C94.8032432,109.920811 95.7624324,111.090811 97.0889189,111.640946 C98.417027,112.189054 99.9227027,112.040676 101.115811,111.239595 C101.256892,111.143108 101.442162,111.139054 101.586892,111.239595 C102.304865,111.722027 103.137162,111.969324 103.973108,111.969324 C104.527297,111.969324 105.083108,111.859459 105.614189,111.640946 C106.942297,111.090811 107.901892,109.920811 108.177973,108.507568 C108.210811,108.33973 108.340135,108.210405 108.512027,108.177568 C109.921216,107.899459 111.091216,106.94027 111.641351,105.613784 C112.191486,104.287297 112.040676,102.78 111.24,101.586892 Z M108.03527,103.739189 C108.139459,103.893649 108.114324,104.040405 108.075811,104.134865 C108.03527,104.231351 107.952162,104.350946 107.770946,104.387838 C106.050811,104.721892 104.72473,106.047973 104.390676,107.764459 C104.354189,107.94973 104.234189,108.034865 104.137703,108.073378 C104.041216,108.111892 103.898514,108.139054 103.742027,108.032838 C103.016351,107.544324 102.184054,107.301081 101.354189,107.301081 C100.524324,107.301081 99.692027,107.544324 98.9663514,108.032838 C98.8118919,108.139054 98.6651351,108.113919 98.5706757,108.073378 C98.4741892,108.032838 98.3545946,107.94973 98.3177027,107.768514 C97.9836486,106.048378 96.6575676,104.722297 94.9410811,104.388243 C94.7558108,104.351757 94.6706757,104.231757 94.6321622,104.13527 C94.5916216,104.040811 94.5685135,103.894054 94.6727027,103.739595 C95.6477027,102.287838 95.6477027,100.413243 94.6727027,98.9614865 C94.5685135,98.807027 94.5936486,98.6602703 94.6321622,98.5658108 C94.6727027,98.4693243 94.7558108,98.3497297 94.937027,98.3128378 C96.6571622,97.9787838 97.9832432,96.6527027 98.3172973,94.9362162 C98.3537838,94.7509459 98.4737838,94.6658108 98.5702703,94.6272973 C98.6647297,94.5867568 98.8094595,94.5616216 98.9659459,94.6678378 C100.417703,95.6448649 102.292297,95.6448649 103.744054,94.6678378 C103.900541,94.5616216 104.04527,94.5908108 104.13973,94.6272973 C104.236216,94.6678378 104.355811,94.7509459 104.392703,94.9321622 C104.726757,96.6522973 106.052838,97.9783784 107.769324,98.3124324 C107.954595,98.3489189 108.03973,98.4689189 108.078243,98.5654054 C108.118784,98.6598649 108.141892,98.8066216 108.037703,98.9610811 C107.059865,100.414865 107.059865,102.287838 108.03527,103.739189 Z" id="Shape"></path>
                        <path d="M101.351757,83.0116216 C99.6028378,83.0116216 97.8612162,83.2682432 96.1585135,83.7762162 L72.2298649,59.8455405 L96.1605405,35.9148649 C99.7512162,36.9822973 103.529189,36.9227027 107.164459,35.7316216 C112.622027,33.9381081 116.952162,29.607973 118.745676,24.1487838 C120.071757,20.1141892 119.99473,15.8959459 118.529595,11.9517568 L117.481216,9.13337838 L104.649324,21.9652703 C103.894459,22.7201351 102.674595,22.7201351 101.91973,21.9652703 L97.7266216,17.7721622 C96.9737838,17.0193243 96.9737838,15.7954054 97.7266216,15.0425676 L110.558514,2.21027027 L107.740135,1.16189189 C103.794324,-0.30527027 99.5781081,-0.380675676 95.5414865,0.945810811 C90.0839189,2.73932432 85.7537838,7.06945946 83.9602703,12.5286486 C82.7691892,16.1598649 82.7091892,19.9378378 83.777027,23.5305405 L59.8463514,47.4612162 L35.9152703,23.532973 C36.4228378,21.8302703 36.6798649,20.0890541 36.6798649,18.3397297 C36.6798649,8.2277027 28.4521622,0 18.3397297,0 C8.2277027,0 0.000405405405,8.2277027 0.000405405405,18.3397297 C0.000405405405,28.4517568 8.22810811,36.6794595 18.3401351,36.6794595 C20.0890541,36.6794595 21.8306757,36.4228378 23.5333784,35.9148649 L47.462027,59.8455405 L23.5313514,83.7762162 C19.9406757,82.7087838 16.1627027,82.7667568 12.5274324,83.9594595 C7.06986486,85.752973 2.73972973,90.0831081 0.946216216,95.5422973 C-0.379864865,99.5768919 -0.302837838,103.795135 1.1622973,107.739324 L2.21067568,110.557703 L15.0425676,97.7258108 C15.7974324,96.9709459 17.0172973,96.9709459 17.7721622,97.7258108 L21.9656757,101.918919 C22.7185135,102.671757 22.7185135,103.895676 21.9656757,104.648514 L9.13378378,117.480405 L11.9521622,118.528784 C14.0274324,119.299054 16.1781081,119.687027 18.3401351,119.687027 C20.2860811,119.687027 22.2397297,119.374459 24.1528378,118.746892 C29.6104054,116.953378 33.9405405,112.623243 35.7340541,107.164054 C36.9251351,103.532838 36.9851351,99.7548649 35.9172973,96.1621622 L59.8459459,72.2298649 L83.7766216,96.1585135 C83.2690541,97.8612162 83.012027,99.6024324 83.012027,101.351757 C83.012027,111.463784 91.2397297,119.691486 101.351757,119.691486 C111.463784,119.691486 119.691486,111.463784 119.691486,101.351757 C119.691486,91.2397297 111.463378,83.0116216 101.351757,83.0116216 Z M24.5428378,31.4651351 L23.3805405,31.8977027 C21.7358108,32.5098649 20.0387838,32.8183784 18.3401351,32.8183784 C10.3556757,32.8183784 3.86148649,26.3241892 3.86148649,18.3397297 C3.86148649,10.3552703 10.3556757,3.86108108 18.3397297,3.86108108 C26.3241892,3.86108108 32.8183784,10.3552703 32.8183784,18.3397297 C32.8183784,20.0383784 32.5094595,21.7354054 31.8956757,23.3801351 L31.4631081,24.5424324 L57.1135135,50.1928378 L50.1932432,57.1135135 L24.5428378,31.4651351 Z M57.1159459,69.4982432 L31.4655405,95.1486486 L31.8981081,96.3109459 C33.0737838,99.4710811 33.1317568,102.716351 32.0659459,105.957568 C30.6547297,110.256892 27.2456757,113.664324 22.9483784,115.077162 C20.7494595,115.799189 18.5545946,116.005541 16.3787838,115.697027 L24.6993243,107.376486 C25.7918919,106.283919 26.3963514,104.828108 26.3963514,103.281892 C26.3963514,101.735676 25.7922973,100.279865 24.6993243,99.1872973 L20.5062162,94.9941892 C18.3190541,92.807027 14.5041892,92.807027 12.317027,94.9941892 L3.99608108,103.31473 C3.68918919,101.140946 3.89391892,98.942027 4.61594595,96.7471622 C6.02716216,92.4478378 9.43621622,89.0404054 13.7335135,87.6275676 C16.9747297,86.5637838 20.222027,86.6181081 23.3821622,87.7954054 L24.5444595,88.227973 L50.1932432,62.5755405 L62.5755405,50.1932432 L88.2259459,24.5428378 L87.7933784,23.3805405 C86.6177027,20.2204054 86.5597297,16.9751351 87.6255405,13.7339189 C89.0367568,9.43459459 92.4458108,6.02716216 96.7431081,4.61432432 C98.942027,3.89432432 101.138919,3.68594595 103.312703,3.99445946 L94.9921622,12.315 C93.8995946,13.4075676 93.2951351,14.8633784 93.2951351,16.4095946 C93.2951351,17.9558108 93.8991892,19.4116216 94.9921622,20.5041892 L99.1852703,24.6972973 C101.372432,26.8844595 105.187297,26.8844595 107.374459,24.6972973 L115.695,16.3767568 C116.001892,18.5505405 115.797162,20.7494595 115.075135,22.9443243 C113.663919,27.2436486 110.254865,30.6510811 105.957568,32.0639189 C102.716351,33.1277027 99.4710811,33.0733784 96.3089189,31.8960811 L95.1466216,31.4635135 L69.4978378,57.1159459 L57.1159459,69.4982432 Z M101.351757,115.83 C93.3672973,115.83 86.8731081,109.335811 86.8731081,101.351351 C86.8731081,99.6527027 87.182027,97.9556757 87.7958108,96.3109459 L88.2283784,95.1486486 L62.577973,69.4982432 L69.4986486,62.5775676 L95.1490541,88.227973 L96.3113514,87.7954054 C97.9560811,87.1816216 99.6531081,86.8727027 101.351757,86.8727027 C109.336216,86.8727027 115.830405,93.3668919 115.830405,101.351351 C115.830405,109.335811 109.335811,115.83 101.351757,115.83 Z" id="Shape"></path>
                    </g>
                </g>
            </g>
        </g>
    </g>
</svg>